<?xml version="1.0" encoding="utf-8"?>
<svg xmlns="http://www.w3.org/2000/svg" viewBox="0 0 24 24" fill="#000000"><path d="M20.333,6H3.667C2.746,6,2,6.767,2,7.714v8.571C2,17.232,2.746,18,3.667,18h16.667 C21.254,18,22,17.232,22,16.286V7.714C22,6.767,21.254,6,20.333,6z M7.107,13.996c0.879,0.002,0.851-0.834,0.859-1.042h1.202 c0.008,1.085-0.413,2.016-2.061,2.016c-1.589,0-2.086-0.949-2.086-2.485v-0.989C5.021,10.175,5.471,9,7.123,9 c1.783,0,2.006,1.393,2.053,2.054H7.969C7.964,10.847,7.92,9.957,7.123,9.974c-0.902,0.018-0.895,1.234-0.895,1.512v0.999 C6.231,13.123,6.25,13.993,7.107,13.996z M12.392,11.466c1.068,0.518,1.665,1.005,1.66,1.891c-0.001,0.255-0.121,1.612-1.84,1.612 c-1.462,0-2.061-1.193-2.061-1.911h1.207c0,0.176,0.131,0.971,0.854,0.958c0.361-0.007,0.628-0.22,0.63-0.651 c0.002-0.627-1.007-0.849-1.503-1.197c-0.498-0.349-1.027-0.754-1.041-1.545C10.278,9.518,10.94,9,12.187,9 c1.772,0,1.87,1.532,1.87,1.796h-1.199c0-0.122-0.018-0.836-0.692-0.833c-0.523,0.002-0.692,0.304-0.666,0.67 C11.536,11.148,12.059,11.312,12.392,11.466z M17.335,11.466c1.744,0.66,1.66,1.652,1.66,1.891c0.005,1.24-1.146,1.612-1.84,1.612 c-1.38,0-2.061-0.994-2.061-1.911h1.207c0.038,0.468,0.207,0.953,0.854,0.958c0.348,0.002,0.615-0.224,0.63-0.651 c0.027-0.755-0.812-0.885-1.503-1.197c-0.554-0.25-1.06-0.757-1.041-1.545C15.271,9.388,15.972,9,17.13,9 C18.947,9,19,10.322,19,10.796h-1.199c0-0.122,0.001-0.812-0.692-0.833c-0.517-0.016-0.658,0.323-0.666,0.67 C16.43,11.205,17.202,11.41,17.335,11.466z" fill="#000000"/></svg>
