<?xml version="1.0" encoding="utf-8"?>
<svg xmlns="http://www.w3.org/2000/svg" viewBox="0 0 24 24" fill="#000000"><path d="M 7.5 6 C 4.468 6 2 8.467 2 11.5 C 2 14.532 4.468 17 7.5 17 L 16.5 17 C 19.532 17 22 14.532 22 11.5 C 22 8.467 19.532 6 16.5 6 L 7.5 6 z M 7.5 8 C 9.43 8 11 9.57 11 11.5 C 11 13.43 9.43 15 7.5 15 C 7.25875 15 7.0088867 14.984199 6.78125 14.9375 C 5.187793 14.610605 4 13.18875 4 11.5 C 4 11.25875 4.0158008 11.008887 4.0625 10.78125 C 4.3893945 9.187793 5.81125 8 7.5 8 z M 11.75 8 L 16.5 8 C 18.43 8 20 9.57 20 11.5 C 20 13.43 18.43 15 16.5 15 L 11.75 15 C 12.53534 14.048848 13 12.8265 13 11.5 C 13 10.173063 12.53534 8.9510754 11.75 8 z" fill="#000000"/></svg>
